<?xml version="1.0" standalone="no"?>
<!DOCTYPE svg PUBLIC "-//W3C//DTD SVG 20010904//EN"
 "http://www.w3.org/TR/2001/REC-SVG-20010904/DTD/svg10.dtd">
<svg version="1.0" xmlns="http://www.w3.org/2000/svg"
 width="256.000000pt" height="256.000000pt" viewBox="0 0 256.000000 256.000000"
 preserveAspectRatio="xMidYMid meet">
<metadata>
Created by potrace 1.11, written by Peter Selinger 2001-2013
</metadata>
<g transform="translate(0.000000,256.000000) scale(0.100000,-0.100000)"
fill="#000000" stroke="none">
<path d="M2500 2536 c0 -14 5 -28 10 -31 9 -5 14 7 12 26 -1 4 8 5 18 2 14 -4
20 0 20 11 0 11 -9 16 -30 16 -25 0 -30 -4 -30 -24z"/>
<path d="M2530 2510 c0 -5 7 -10 15 -10 8 0 15 5 15 10 0 6 -7 10 -15 10 -8 0
-15 -4 -15 -10z"/>
<path d="M1160 2482 c-35 -2 -71 -8 -79 -15 -12 -10 -13 -9 -6 3 7 12 6 13 -6
4 -8 -7 -36 -14 -62 -17 -27 -4 -56 -12 -65 -19 -13 -11 -14 -11 -7 1 5 8 -7
4 -25 -9 -18 -13 -30 -17 -25 -9 6 11 5 12 -6 2 -7 -7 -19 -13 -27 -13 -27 0
-112 -42 -105 -53 4 -6 0 -8 -10 -4 -9 3 -19 1 -23 -5 -5 -7 -2 -8 6 -3 9 5
11 4 6 -3 -4 -7 -20 -12 -35 -12 -30 0 -66 -31 -54 -45 5 -5 1 -4 -8 3 -13 10
-19 9 -30 -5 -9 -11 -10 -14 -1 -9 6 4 12 5 12 3 0 -8 -89 -67 -98 -65 -5 2
-37 -23 -70 -54 -59 -56 -75 -81 -23 -35 l26 22 -24 -27 c-14 -16 -30 -28 -36
-28 -7 0 -20 -10 -31 -22 -19 -23 -19 -23 2 -8 11 8 6 2 -10 -14 -17 -16 -25
-25 -17 -21 9 5 12 4 7 -3 -4 -7 -15 -12 -24 -12 -15 0 -15 -2 -2 -10 13 -8
13 -10 -1 -10 -9 0 -23 -8 -30 -17 -12 -16 -12 -17 1 -8 10 6 9 4 -2 -6 -9 -9
-14 -19 -11 -23 4 -3 0 -6 -7 -6 -7 0 -11 -3 -7 -6 3 -4 -2 -14 -11 -23 -10
-9 -13 -14 -7 -11 6 3 2 -3 -8 -12 -11 -10 -16 -18 -12 -18 5 0 0 -10 -11 -22
-12 -13 -13 -18 -4 -13 9 5 8 0 -4 -13 -11 -12 -15 -22 -10 -22 5 0 0 -7 -10
-15 -14 -11 -16 -15 -5 -15 12 0 12 -2 -1 -10 -16 -10 -17 -11 -19 -72 -2 -27
-5 -37 -9 -26 -6 15 -9 14 -19 -7 -8 -19 -8 -23 0 -18 8 4 8 1 0 -9 -7 -8 -16
-37 -19 -64 -4 -27 -12 -55 -18 -63 -9 -12 -8 -13 4 -6 12 6 13 5 3 -6 -18
-19 -18 -379 0 -398 10 -11 9 -12 -3 -6 -12 7 -13 6 -4 -6 7 -8 14 -36 17 -62
4 -27 12 -56 19 -65 9 -11 9 -14 1 -9 -8 5 -8 -1 2 -19 8 -15 11 -32 8 -37 -3
-6 -1 -7 5 -3 7 4 12 0 13 -11 1 -38 10 -68 22 -78 6 -6 13 -17 15 -25 2 -8 8
-18 14 -21 5 -3 9 -9 9 -13 -1 -3 -1 -7 0 -8 8 -27 12 -57 17 -123 l7 -80 6
65 6 65 1 -80 c1 -44 5 -91 9 -104 6 -23 7 -23 14 -5 7 17 8 17 8 -4 1 -16 5
-21 14 -16 7 5 7 2 -2 -10 -12 -14 -12 -17 -1 -14 8 2 14 -4 15 -12 1 -8 6
-14 13 -12 7 1 13 -5 13 -13 3 -35 5 -40 17 -37 7 1 12 -3 12 -9 0 -5 6 -7 12
-3 8 5 8 2 -1 -10 -12 -15 -12 -17 0 -14 8 2 13 -3 11 -9 -1 -7 5 -14 13 -14
29 -3 33 -4 42 -13 4 -5 3 -6 -4 -2 -6 3 -15 2 -18 -4 -4 -6 -3 -10 2 -9 26 4
53 -2 48 -12 -4 -6 2 -13 14 -16 11 -3 18 -9 15 -14 -3 -5 2 -10 10 -10 35 -3
41 -5 38 -17 -2 -10 26 -17 51 -13 5 1 6 -3 2 -9 -3 -6 -12 -7 -18 -4 -7 4 -8
3 -4 -2 9 -9 13 -10 43 -13 9 -1 12 -6 8 -13 -5 -9 -3 -9 9 1 14 11 18 11 23
-4 5 -13 9 -14 15 -3 7 10 9 10 9 1 0 -8 14 -14 33 -14 l32 -2 -35 -7 -35 -7
33 -3 c48 -4 50 -4 59 -14 4 -5 3 -6 -4 -2 -6 3 -14 3 -17 -2 -2 -4 10 -9 27
-10 45 -4 90 -12 97 -18 3 -3 -15 -3 -40 1 -25 4 -42 4 -39 1 7 -8 46 -14 99
-16 36 -2 40 -3 20 -9 l-25 -7 30 -7 c17 -3 188 -5 380 -4 274 2 349 5 347 14
-1 8 9 13 25 14 36 1 63 6 71 13 3 4 -12 4 -34 0 -21 -3 -36 -3 -33 1 4 3 31
9 60 11 95 9 104 11 101 23 -1 6 7 11 19 11 11 0 18 4 15 8 -2 4 -1 14 5 22 7
13 9 13 9 1 0 -11 4 -10 13 4 10 12 16 14 21 7 4 -7 13 -12 19 -12 7 0 6 4 -3
10 -12 8 -9 10 13 11 46 2 52 4 49 17 -1 7 5 12 13 12 8 0 15 7 15 15 0 8 3
14 8 14 21 -4 32 2 26 14 -5 7 0 6 11 -3 11 -9 16 -10 11 -2 -4 7 -1 12 8 13
9 1 22 2 29 3 6 0 12 8 12 16 0 8 5 15 12 15 6 0 15 4 20 9 4 5 3 6 -4 2 -6
-3 -14 -3 -17 2 -2 4 5 9 17 9 12 1 23 7 25 13 2 5 10 10 18 10 8 0 13 3 13 8
-5 27 3 52 16 52 8 0 14 6 13 13 -2 6 3 11 11 9 12 -3 12 -1 1 13 -7 9 -9 15
-4 14 19 -3 44 1 43 9 -4 25 3 52 14 50 9 -2 12 24 14 101 1 91 4 106 23 123
11 10 18 23 15 28 -3 5 -1 11 5 15 6 4 8 11 5 16 -4 5 -1 9 5 9 6 0 8 5 5 10
-3 6 -1 10 5 10 6 0 9 4 5 9 -3 5 2 17 11 25 11 12 12 16 2 16 -8 0 -9 3 -3 8
6 4 17 16 25 26 13 18 13 19 0 11 -13 -7 -13 -6 -2 7 12 15 24 55 25 86 0 6 3
12 7 12 4 0 7 6 8 13 1 6 4 48 8 92 3 44 12 86 18 94 9 12 8 13 -4 6 -12 -6
-13 -5 -2 6 7 8 12 41 12 84 0 43 -5 76 -12 84 -11 11 -10 12 2 6 12 -7 13 -6
4 6 -7 8 -14 50 -18 94 -8 104 -8 105 -16 105 -4 0 -7 6 -7 13 0 6 -4 28 -8
47 -4 19 -8 41 -8 48 0 6 -4 12 -9 12 -4 0 -8 7 -8 15 0 8 -6 15 -12 15 -10 0
-10 2 0 9 11 6 10 10 -4 15 -9 3 -14 9 -10 13 3 3 -2 15 -11 26 -13 15 -14 18
-3 12 9 -5 7 1 -5 14 -11 13 -19 25 -17 27 8 14 -1 34 -19 39 -15 5 -18 10 -9
15 8 5 7 9 -5 14 -9 3 -13 10 -10 16 3 5 -2 10 -12 11 -10 0 -13 3 -6 6 8 3 3
13 -15 30 -15 14 -20 22 -12 17 9 -5 4 2 -10 15 -14 13 -19 20 -12 17 25 -14
11 4 -15 19 -16 9 -20 14 -10 11 28 -9 19 3 -15 19 -18 8 -25 13 -15 10 10 -3
15 -1 12 5 -3 6 -15 10 -26 10 -10 0 -20 5 -20 10 -3 22 -5 26 -24 48 -11 12
-26 22 -35 22 -8 0 -21 9 -28 21 -11 17 -11 20 0 14 19 -10 -24 25 -46 37 -14
8 -17 7 -10 -4 7 -11 5 -11 -9 0 -9 8 -15 18 -14 23 1 5 -14 19 -33 30 l-35
21 25 -21 c14 -11 29 -21 34 -21 5 0 7 -2 4 -6 -3 -3 -28 9 -54 27 -27 17 -41
29 -31 25 11 -3 16 -2 12 4 -3 6 -13 10 -21 10 -8 0 -14 5 -14 10 0 6 -13 10
-29 10 -17 0 -31 6 -35 16 -4 9 -11 12 -18 7 -21 -13 -35 -12 -35 3 0 11 3 11
16 1 14 -10 14 -10 3 5 -7 9 -28 20 -45 24 -18 3 -36 9 -42 13 -22 13 -74 28
-98 27 -14 -1 -24 1 -21 5 2 4 -13 9 -34 12 -20 2 -47 7 -59 10 -29 8 -233 14
-313 9z m47 -29 c-20 -2 -52 -2 -70 0 -17 2 0 4 38 4 39 0 53 -2 32 -4z m221
0 c-26 -2 -71 -2 -100 0 -29 2 -8 3 47 3 55 0 79 -1 53 -3z m-380 -10 c-10 -2
-26 -2 -35 0 -10 3 -2 5 17 5 19 0 27 -2 18 -5z m485 0 c-7 -2 -19 -2 -25 0
-7 3 -2 5 12 5 14 0 19 -2 13 -5z m70 -20 c-7 -2 -19 -2 -25 0 -7 3 -2 5 12 5
14 0 19 -2 13 -5z m52 -11 c-3 -3 -11 0 -18 7 -9 10 -8 11 6 5 10 -3 15 -9 12
-12z m-1145 -205 c0 -2 -17 -19 -37 -38 l-38 -34 34 38 c33 34 41 42 41 34z
m1947 -824 c-2 -16 -4 -5 -4 22 0 28 2 40 4 28 2 -13 2 -35 0 -50z m-2350
-175 c-1 -40 -3 -8 -3 72 0 80 2 112 3 73 2 -40 2 -106 0 -145z m2350 -85 c-2
-16 -4 -5 -4 22 0 28 2 40 4 28 2 -13 2 -35 0 -50z m-343 -881 c2 -4 -5 -9
-17 -9 -17 -2 -19 0 -7 7 18 12 18 12 24 2z m-130 -80 c3 -5 -1 -9 -9 -9 -8 0
-12 4 -9 9 3 4 7 8 9 8 2 0 6 -4 9 -8z m-847 -58 c-3 -3 -12 -4 -19 -1 -8 3
-5 6 6 6 11 1 17 -2 13 -5z m281 -1 c-16 -2 -40 -2 -55 0 -16 2 -3 4 27 4 30
0 43 -2 28 -4z m406 -21 c2 -4 -12 -8 -32 -9 -36 -1 -36 -1 -7 7 17 4 31 8 32
9 1 0 4 -3 7 -7z"/>
<path d="M545 2244 l-30 -26 33 22 c17 12 32 23 32 26 0 7 -4 5 -35 -22z"/>
<path d="M2328 673 c-2 -5 0 -37 3 -73 l6 -65 0 73 c0 69 -2 81 -9 65z"/>
<path d="M0 50 c0 -5 6 -11 13 -13 10 -4 10 -6 0 -6 -25 -2 -13 -31 12 -31 22
0 25 4 23 29 -2 22 -7 29 -25 29 -13 0 -23 -4 -23 -8z"/>
</g>
</svg>
