<?xml version="1.0" standalone="no"?>
<!DOCTYPE svg PUBLIC "-//W3C//DTD SVG 20010904//EN"
 "http://www.w3.org/TR/2001/REC-SVG-20010904/DTD/svg10.dtd">
<svg version="1.0" xmlns="http://www.w3.org/2000/svg"
 width="256.000000pt" height="256.000000pt" viewBox="0 0 256.000000 256.000000"
 preserveAspectRatio="xMidYMid meet">
<metadata>
Created by potrace 1.11, written by Peter Selinger 2001-2013
</metadata>
<g transform="translate(0.000000,256.000000) scale(0.100000,-0.100000)"
fill="#000000" stroke="none">
<path d="M1170 2434 c-14 -2 -63 -11 -110 -19 -479 -84 -870 -497 -932 -985
-14 -112 -3 -324 21 -420 56 -221 152 -391 311 -550 239 -240 534 -352 880
-337 291 13 553 129 760 336 211 211 324 471 337 771 14 342 -102 632 -352
876 -168 165 -356 265 -580 309 -80 16 -288 28 -335 19z m299 -69 c93 -22 197
-62 259 -102 29 -18 55 -33 58 -33 10 0 188 -153 232 -199 129 -138 222 -318
200 -391 -11 -36 -57 -128 -67 -134 -6 -4 -9 -12 -6 -17 4 -5 2 -9 -3 -9 -11
0 -36 -51 -33 -67 1 -7 -3 -13 -9 -13 -6 0 -8 -4 -5 -10 3 -5 0 -11 -7 -12 -7
0 -17 -2 -23 -3 -5 -2 -14 -3 -20 -4 -5 -1 -3 -6 5 -11 13 -9 13 -10 0 -10
-17 0 -24 -51 -9 -61 13 -8 -22 -69 -40 -69 -8 0 -11 -6 -7 -15 3 -9 -1 -18
-9 -21 -8 -4 -13 -9 -10 -14 6 -10 -28 -25 -110 -50 -346 -104 -852 -104
-1191 1 -84 26 -100 37 -100 69 0 15 -5 25 -14 25 -10 0 -14 8 -12 24 2 13 0
21 -5 18 -4 -3 -17 7 -27 21 -11 14 -14 22 -8 18 17 -10 15 34 -2 57 -7 9 -18
17 -25 17 -6 0 -11 7 -11 15 0 8 -4 15 -8 15 -4 0 -9 10 -9 22 -1 13 -7 24
-13 26 -5 2 -10 10 -10 18 0 8 -5 14 -11 14 -5 0 -8 4 -4 9 3 6 -1 14 -10 18
-8 5 -16 19 -18 32 -2 12 -8 26 -13 29 -18 13 -31 58 -30 107 2 55 36 132 108
239 47 70 207 233 288 293 108 81 293 156 422 172 86 10 227 4 307 -14z m-794
-1369 c351 -78 824 -82 1168 -10 92 19 108 19 79 -2 -12 -8 -20 -19 -17 -24 3
-4 -2 -11 -11 -14 -8 -3 -13 -10 -10 -15 3 -5 -4 -20 -15 -35 l-20 -26 36 0
c28 0 38 5 45 23 5 12 9 15 9 7 1 -28 -24 -46 -74 -57 -129 -28 -257 -52 -335
-64 -110 -17 -472 -17 -565 0 -138 24 -226 45 -231 53 -3 4 -13 8 -23 8 -10 0
-32 7 -47 15 -16 8 -23 15 -16 15 19 0 15 14 -13 44 -14 15 -31 39 -39 54 -14
25 -15 25 -16 5 0 -12 4 -24 10 -28 5 -3 6 -13 3 -21 -3 -10 -12 4 -24 38 -10
29 -18 54 -19 56 0 5 18 1 125 -22z m1296 -8 c-3 -21 -6 -26 -9 -15 -3 17 3
47 11 47 2 0 1 -15 -2 -32z m-14 -60 c-3 -8 -6 -5 -6 6 -1 11 2 17 5 13 3 -3
4 -12 1 -19z m-1343 -43 c3 -8 1 -15 -4 -15 -6 0 -10 7 -10 15 0 8 2 15 4 15
2 0 6 -7 10 -15z m181 -171 c259 -52 554 -63 803 -30 73 10 144 16 158 13 13
-2 24 -1 24 3 0 4 11 12 25 18 35 16 31 6 -11 -31 -20 -18 -49 -43 -64 -57
-15 -14 -45 -34 -66 -45 -21 -11 -41 -22 -44 -25 -19 -19 -79 -42 -192 -74
-79 -22 -227 -21 -319 3 -117 31 -148 41 -154 51 -4 6 -15 10 -26 10 -10 0
-19 5 -19 10 0 6 -4 10 -9 10 -6 0 -32 14 -58 32 -56 38 -168 146 -138 134 11
-5 52 -15 90 -22z m292 -320 c-3 -3 -12 -4 -19 -1 -8 3 -5 6 6 6 11 1 17 -2
13 -5z m390 0 c-3 -3 -12 -4 -19 -1 -8 3 -5 6 6 6 11 1 17 -2 13 -5z m-254
-21 c-13 -2 -33 -2 -45 0 -13 2 -3 4 22 4 25 0 35 -2 23 -4z m150 0 c-13 -2
-33 -2 -45 0 -13 2 -3 4 22 4 25 0 35 -2 23 -4z"/>
<path d="M875 1671 c-76 -47 -119 -141 -123 -272 -3 -77 -1 -98 12 -108 24
-20 43 -7 71 48 30 60 65 86 117 86 45 0 78 -29 111 -96 26 -52 61 -65 73 -27
12 40 6 166 -11 216 -47 140 -160 209 -250 153z"/>
<path d="M1539 1672 c-61 -40 -102 -109 -118 -197 -32 -171 14 -259 73 -141
32 64 67 90 118 90 45 1 90 -38 118 -101 22 -49 49 -57 69 -20 15 27 10 137
-8 204 -15 58 -56 123 -99 156 -42 33 -112 37 -153 9z"/>
<path d="M750 695 c0 -8 121 -95 132 -95 5 0 3 7 -6 15 -8 8 -17 15 -21 15
-10 0 -35 27 -35 38 0 6 -14 15 -31 21 -36 12 -39 13 -39 6z"/>
<path d="M1728 669 c-13 -14 -14 -19 -5 -19 8 0 22 9 32 20 14 15 15 20 4 19
-8 0 -22 -9 -31 -20z"/>
</g>
</svg>
